<svg width="50" height="50" viewBox="0 0 50 50" fill="none" xmlns="http://www.w3.org/2000/svg">
<path d="M50 24.8242C50 11.2295 38.8071 0.208832 25 0.208832C11.1929 0.208832 0 11.2295 0 24.8242C0 38.4189 11.1929 49.4396 25 49.4396C38.8071 49.4396 50 38.4189 50 24.8242Z" fill="#A5BEFF"/>
<path d="M33.037 17.7248L25.2245 15.4171C25.1078 15.3826 24.9846 15.3755 24.8647 15.3962C24.7447 15.417 24.6313 15.4651 24.5336 15.5367C24.4359 15.6083 24.3566 15.7014 24.3019 15.8085C24.2472 15.9157 24.2188 16.0339 24.2188 16.1538V20.7519C24.2184 20.7637 24.2184 20.7754 24.2188 20.7872V26.5636C23.419 25.8596 22.398 25.4472 21.3266 25.3953C20.2552 25.3434 19.198 25.6551 18.332 26.2783C17.4659 26.9015 16.8432 27.7985 16.5681 28.8195C16.293 29.8404 16.382 30.9234 16.8204 31.8874C17.2587 32.8515 18.0198 33.6382 18.9764 34.1162C19.933 34.5941 21.0273 34.7343 22.0763 34.5133C23.1254 34.2924 24.0655 33.7236 24.7399 32.9022C25.4142 32.0807 25.7818 31.0562 25.7813 30V21.8031L32.588 23.8137C32.7046 23.8482 32.8279 23.8553 32.9478 23.8345C33.0677 23.8138 33.1811 23.7657 33.2788 23.6941C33.3766 23.6225 33.4559 23.5294 33.5106 23.4222C33.5652 23.3151 33.5938 23.1968 33.5938 23.0769V18.4615C33.5938 18.2961 33.5396 18.1351 33.4393 18.0024C33.339 17.8696 33.1979 17.7723 33.037 17.7248Z" fill="#0033B6"/>
</svg>
