<svg width="50" height="50" viewBox="0 0 50 50" fill="none" xmlns="http://www.w3.org/2000/svg">
<path d="M50 24.8152C50 11.2205 38.8071 0.199814 25 0.199814C11.1929 0.199814 0 11.2205 0 24.8152C0 38.4099 11.1929 49.4306 25 49.4306C38.8071 49.4306 50 38.4099 50 24.8152Z" fill="#FFC960"/>
<path d="M35.8131 20.1476C35.5896 19.9639 35.3181 19.8458 35.0297 19.8066C34.7412 19.7675 34.4474 19.8091 34.1818 19.9265L29.242 22.0882L26.3658 16.9907C26.2305 16.7508 26.0324 16.551 25.7923 16.4118C25.5521 16.2727 25.2786 16.1993 24.9999 16.1993C24.7212 16.1993 24.4477 16.2727 24.2075 16.4118C23.9673 16.551 23.7694 16.7508 23.6341 16.9907L20.7577 22.0882L15.8172 19.9261C15.5513 19.8098 15.2578 19.7688 14.9697 19.8079C14.6815 19.847 14.4101 19.9645 14.1861 20.1472C13.962 20.3298 13.7943 20.5705 13.7016 20.8419C13.6089 21.1135 13.5951 21.405 13.6616 21.6838L16.1465 32.1005C16.1937 32.3022 16.2823 32.4922 16.4066 32.659C16.5311 32.8259 16.6887 32.966 16.8699 33.0709C17.0521 33.1764 17.254 33.2449 17.4636 33.2722C17.6731 33.2995 17.8862 33.285 18.09 33.2296C22.6105 32.0009 27.3845 32.0004 31.9052 33.2283C32.109 33.2836 32.3219 33.298 32.5314 33.2708C32.7409 33.2435 32.9427 33.1751 33.1248 33.0695C33.3059 32.9648 33.4634 32.8248 33.5879 32.658C33.7123 32.4913 33.8008 32.3014 33.8482 32.0999L36.3373 21.6847C36.4051 21.4058 36.3919 21.1139 36.2991 20.8421C36.2065 20.5703 36.038 20.3297 35.8131 20.1476ZM28.9019 28.7034C28.8912 28.8039 28.8606 28.9014 28.8117 28.9902C28.7627 29.0791 28.6966 29.1575 28.6168 29.2211C28.537 29.2847 28.4453 29.3322 28.3469 29.3608C28.2484 29.3895 28.1452 29.3987 28.0432 29.3879C26.0199 29.1788 23.9799 29.1788 21.9566 29.3879C21.7509 29.4085 21.5454 29.348 21.3849 29.2197C21.2245 29.0913 21.1223 28.9056 21.1006 28.7032C21.079 28.5007 21.1398 28.2981 21.2695 28.1397C21.3994 27.9812 21.5877 27.8799 21.7932 27.8579C23.9252 27.6375 26.0747 27.6375 28.2066 27.8579C28.3087 27.8685 28.4076 27.8988 28.4977 27.9469C28.5879 27.9952 28.6676 28.0604 28.7321 28.1389C28.7966 28.2174 28.8449 28.3077 28.874 28.4045C28.9031 28.5014 28.9126 28.6029 28.9019 28.7034Z" fill="#543700"/>
</svg>
