<svg width="70" height="70" viewBox="0 0 70 70" fill="none" xmlns="http://www.w3.org/2000/svg">
<path d="M69.0219 36.481C69.0219 45.3324 65.5566 53.8213 59.3884 60.0801C53.2203 66.3391 44.8544 69.8553 36.1313 69.8553C27.4081 69.8553 19.0422 66.3391 12.8741 60.0801C6.70589 53.8213 3.24063 45.3324 3.24063 36.481H36.1313H69.0219Z" fill="url(#paint0_linear_57_185)"/>
<path d="M36.1313 31.3899C42.3814 31.3899 47.4482 26.2486 47.4482 19.9065C47.4482 13.5644 42.3814 8.4231 36.1313 8.4231C29.8811 8.4231 24.8143 13.5644 24.8143 19.9065C24.8143 26.2486 29.8811 31.3899 36.1313 31.3899Z" fill="url(#paint1_linear_57_185)"/>
<path d="M65.7812 33.3743C65.7812 42.2257 62.316 50.7145 56.1478 56.9734C49.9796 63.2324 41.6138 66.7485 32.8907 66.7485C24.1674 66.7485 15.8016 63.2324 9.63344 56.9734C3.46525 50.7145 1.31716e-06 42.2257 0 33.3743H32.8907H65.7812Z" fill="black"/>
<path d="M32.8906 28.2834C39.1408 28.2834 44.2075 23.1422 44.2075 16.8C44.2075 10.4579 39.1408 5.31665 32.8906 5.31665C26.6404 5.31665 21.5736 10.4579 21.5736 16.8C21.5736 23.1422 26.6404 28.2834 32.8906 28.2834Z" fill="black"/>
<defs>
<linearGradient id="paint0_linear_57_185" x1="-2.26134" y1="53.1681" x2="61.7535" y2="52.9381" gradientUnits="userSpaceOnUse">
<stop offset="0.197917" stop-color="#B16CEA"/>
<stop offset="0.557292" stop-color="#FF5E69"/>
<stop offset="0.828125" stop-color="#FF8A56"/>
<stop offset="1" stop-color="#FFA84B"/>
</linearGradient>
<linearGradient id="paint1_linear_57_185" x1="17.0108" y1="17.317" x2="43.8375" y2="15.2708" gradientUnits="userSpaceOnUse">
<stop offset="0.197917" stop-color="#B16CEA"/>
<stop offset="0.557292" stop-color="#FF5E69"/>
<stop offset="0.828125" stop-color="#FF8A56"/>
<stop offset="1" stop-color="#FFA84B"/>
</linearGradient>
</defs>
</svg>
