<svg width="50" height="50" viewBox="0 0 50 50" fill="none" xmlns="http://www.w3.org/2000/svg">
<path d="M50 25C50 11.1929 38.8071 0 25 0C11.1929 0 0 11.1929 0 25C0 38.8071 11.1929 50 25 50C38.8071 50 50 38.8071 50 25Z" fill="#FFB4E9"/>
<path d="M26.5625 33.5938H23.4375C23.2303 33.5938 23.0316 33.6761 22.8851 33.8226C22.7386 33.9691 22.6562 34.1678 22.6562 34.375C22.6562 34.5822 22.7386 34.7809 22.8851 34.9274C23.0316 35.0739 23.2303 35.1562 23.4375 35.1562H26.5625C26.7697 35.1562 26.9684 35.0739 27.1149 34.9274C27.2614 34.7809 27.3438 34.5822 27.3438 34.375C27.3438 34.1678 27.2614 33.9691 27.1149 33.8226C26.9684 33.6761 26.7697 33.5938 26.5625 33.5938Z" fill="#D10094"/>
<path d="M33.9481 26.5486L30.9953 23.0052C30.9009 21.838 30.6384 20.6907 30.216 19.5986C29.0815 16.6482 27.0757 14.7159 25.9811 13.8266C25.7035 13.6032 25.3582 13.4808 25.0019 13.4796C24.6455 13.4784 24.2994 13.5985 24.0203 13.8201C22.9114 14.7084 20.8799 16.6394 19.734 19.5902C19.2974 20.707 19.0309 21.883 18.9432 23.0788L16.0518 26.5486C15.8995 26.7325 15.7911 26.9487 15.7348 27.1807C15.6784 27.4127 15.6757 27.6545 15.7268 27.8878L16.9341 33.3207C16.9914 33.5799 17.1138 33.8203 17.2898 34.0191C17.4657 34.2178 17.6895 34.3684 17.9398 34.4566C18.1902 34.5448 18.459 34.5677 18.7207 34.5231C18.9824 34.4786 19.2284 34.368 19.4355 34.2019L22.149 32.0311H27.8509L30.5644 34.2019C30.8402 34.4238 31.1834 34.545 31.5375 34.5453C31.7154 34.5452 31.892 34.5148 32.0596 34.4555C32.3103 34.3681 32.5345 34.218 32.7106 34.0193C32.8867 33.8206 33.009 33.5802 33.0658 33.3208L34.2731 27.8879C34.3242 27.6546 34.3215 27.4128 34.2652 27.1807C34.2088 26.9487 34.1004 26.7325 33.9481 26.5486ZM18.4595 32.9818L17.2521 27.5488L19.0027 25.448C19.2247 27.2734 19.8477 29.1413 20.872 31.0518L18.4595 32.9818ZM24.9999 23.0467C24.7682 23.0467 24.5416 22.978 24.3489 22.8492C24.1562 22.7205 24.006 22.5374 23.9173 22.3233C23.8286 22.1091 23.8054 21.8735 23.8506 21.6462C23.8958 21.4189 24.0074 21.2101 24.1713 21.0462C24.3352 20.8823 24.544 20.7707 24.7713 20.7255C24.9987 20.6803 25.2343 20.7035 25.4484 20.7922C25.6626 20.8809 25.8455 21.0311 25.9743 21.2238C26.1031 21.4165 26.1718 21.643 26.1718 21.8748C26.1718 22.1856 26.0484 22.4838 25.8286 22.7035C25.6088 22.9233 25.3108 23.0467 24.9999 23.0467ZM31.5405 32.9818L29.1235 31.0482C30.1346 29.1242 30.7447 27.2402 30.9539 25.3962L32.7478 27.5488L31.5405 32.9818Z" fill="#D10094"/>
</svg>
